<mxfile host="app.diagrams.net" modified="2023-05-30T08:23:42.409Z" agent="Mozilla/5.0 (Windows NT 10.0; Win64; x64) AppleWebKit/537.36 (KHTML, like Gecko) Chrome/113.0.0.0 Safari/537.36" etag="3X01ewrhtZgGB35_hHXj" version="21.3.2" type="github">
  <diagram name="第 1 页" id="5stlvVwKQTENXhOsb_Dq">
    <mxGraphModel dx="1434" dy="764" grid="1" gridSize="10" guides="1" tooltips="1" connect="1" arrows="1" fold="1" page="1" pageScale="1" pageWidth="827" pageHeight="1169" math="0" shadow="0">
      <root>
        <mxCell id="0" />
        <mxCell id="1" parent="0" />
        <mxCell id="zBk1Tng8OVJCPWsyoCuW-44" value="" style="html=1;shadow=0;dashed=0;align=center;verticalAlign=middle;shape=mxgraph.arrows2.calloutArrow;dy=9;dx=28;notch=90;arrowHead=10;fontSize=12;fontFamily=宋体;" parent="1" vertex="1">
          <mxGeometry x="120" y="400" width="140" height="40" as="geometry" />
        </mxCell>
        <mxCell id="zBk1Tng8OVJCPWsyoCuW-7" value="数据层" style="text;html=1;align=center;verticalAlign=middle;resizable=0;points=[];autosize=1;strokeColor=none;fillColor=none;fontSize=12;fontStyle=1;fontFamily=宋体;" parent="1" vertex="1">
          <mxGeometry x="130" y="405" width="60" height="30" as="geometry" />
        </mxCell>
        <mxCell id="zBk1Tng8OVJCPWsyoCuW-49" value="区块" style="rounded=0;whiteSpace=wrap;html=1;fontSize=12;fontFamily=宋体;" parent="1" vertex="1">
          <mxGeometry x="280" y="400" width="80" height="40" as="geometry" />
        </mxCell>
        <mxCell id="zBk1Tng8OVJCPWsyoCuW-50" value="加密算法" style="rounded=0;whiteSpace=wrap;html=1;fontSize=12;fontFamily=宋体;" parent="1" vertex="1">
          <mxGeometry x="360" y="400" width="80" height="40" as="geometry" />
        </mxCell>
        <mxCell id="zBk1Tng8OVJCPWsyoCuW-51" value="时间戳" style="rounded=0;whiteSpace=wrap;html=1;fontSize=12;fontFamily=宋体;" parent="1" vertex="1">
          <mxGeometry x="440" y="400" width="80" height="40" as="geometry" />
        </mxCell>
        <mxCell id="zBk1Tng8OVJCPWsyoCuW-52" value="默克树" style="rounded=0;whiteSpace=wrap;html=1;fontSize=12;fontFamily=宋体;" parent="1" vertex="1">
          <mxGeometry x="520" y="400" width="80" height="40" as="geometry" />
        </mxCell>
        <mxCell id="zBk1Tng8OVJCPWsyoCuW-53" value="" style="html=1;shadow=0;dashed=0;align=center;verticalAlign=middle;shape=mxgraph.arrows2.calloutArrow;dy=9;dx=28;notch=90;arrowHead=10;fontSize=12;fontFamily=宋体;" parent="1" vertex="1">
          <mxGeometry x="120" y="340" width="140" height="40" as="geometry" />
        </mxCell>
        <mxCell id="zBk1Tng8OVJCPWsyoCuW-54" value="网络层" style="text;html=1;align=center;verticalAlign=middle;resizable=0;points=[];autosize=1;strokeColor=none;fillColor=none;fontSize=12;fontStyle=1;fontFamily=宋体;" parent="1" vertex="1">
          <mxGeometry x="130" y="345" width="60" height="30" as="geometry" />
        </mxCell>
        <mxCell id="zBk1Tng8OVJCPWsyoCuW-55" value="P2P" style="rounded=0;whiteSpace=wrap;html=1;fontSize=12;fontFamily=宋体;" parent="1" vertex="1">
          <mxGeometry x="280" y="340" width="80" height="40" as="geometry" />
        </mxCell>
        <mxCell id="zBk1Tng8OVJCPWsyoCuW-56" value="数据传输" style="rounded=0;whiteSpace=wrap;html=1;fontSize=12;fontFamily=宋体;" parent="1" vertex="1">
          <mxGeometry x="360" y="340" width="80" height="40" as="geometry" />
        </mxCell>
        <mxCell id="zBk1Tng8OVJCPWsyoCuW-57" value="验证机制" style="rounded=0;whiteSpace=wrap;html=1;fontSize=12;fontFamily=宋体;" parent="1" vertex="1">
          <mxGeometry x="440" y="340" width="80" height="40" as="geometry" />
        </mxCell>
        <mxCell id="zBk1Tng8OVJCPWsyoCuW-59" value="" style="html=1;shadow=0;dashed=0;align=center;verticalAlign=middle;shape=mxgraph.arrows2.calloutArrow;dy=9;dx=28;notch=90;arrowHead=10;fontSize=12;fontFamily=宋体;" parent="1" vertex="1">
          <mxGeometry x="120" y="280" width="140" height="40" as="geometry" />
        </mxCell>
        <mxCell id="zBk1Tng8OVJCPWsyoCuW-60" value="共识层" style="text;html=1;align=center;verticalAlign=middle;resizable=0;points=[];autosize=1;strokeColor=none;fillColor=none;fontSize=12;fontStyle=1;fontFamily=宋体;" parent="1" vertex="1">
          <mxGeometry x="130" y="285" width="60" height="30" as="geometry" />
        </mxCell>
        <mxCell id="zBk1Tng8OVJCPWsyoCuW-61" value="PoW" style="rounded=0;whiteSpace=wrap;html=1;fontSize=12;fontFamily=宋体;" parent="1" vertex="1">
          <mxGeometry x="280" y="280" width="80" height="40" as="geometry" />
        </mxCell>
        <mxCell id="zBk1Tng8OVJCPWsyoCuW-62" value="PoS" style="rounded=0;whiteSpace=wrap;html=1;fontSize=12;fontFamily=宋体;" parent="1" vertex="1">
          <mxGeometry x="360" y="280" width="80" height="40" as="geometry" />
        </mxCell>
        <mxCell id="zBk1Tng8OVJCPWsyoCuW-63" value="Raft" style="rounded=0;whiteSpace=wrap;html=1;fontSize=12;fontFamily=宋体;" parent="1" vertex="1">
          <mxGeometry x="440" y="280" width="80" height="40" as="geometry" />
        </mxCell>
        <mxCell id="zBk1Tng8OVJCPWsyoCuW-64" value="PBFT" style="rounded=0;whiteSpace=wrap;html=1;fontSize=12;fontFamily=宋体;" parent="1" vertex="1">
          <mxGeometry x="520" y="280" width="80" height="40" as="geometry" />
        </mxCell>
        <mxCell id="zBk1Tng8OVJCPWsyoCuW-65" value="" style="html=1;shadow=0;dashed=0;align=center;verticalAlign=middle;shape=mxgraph.arrows2.calloutArrow;dy=9;dx=28;notch=90;arrowHead=10;fontSize=12;fontFamily=宋体;" parent="1" vertex="1">
          <mxGeometry x="120" y="220" width="140" height="40" as="geometry" />
        </mxCell>
        <mxCell id="zBk1Tng8OVJCPWsyoCuW-66" value="激励层" style="text;html=1;align=center;verticalAlign=middle;resizable=0;points=[];autosize=1;strokeColor=none;fillColor=none;fontSize=12;fontStyle=1;fontFamily=宋体;" parent="1" vertex="1">
          <mxGeometry x="130" y="225" width="60" height="30" as="geometry" />
        </mxCell>
        <mxCell id="zBk1Tng8OVJCPWsyoCuW-67" value="发行制度" style="rounded=0;whiteSpace=wrap;html=1;fontSize=12;fontFamily=宋体;" parent="1" vertex="1">
          <mxGeometry x="280" y="220" width="80" height="40" as="geometry" />
        </mxCell>
        <mxCell id="zBk1Tng8OVJCPWsyoCuW-68" value="分配制度" style="rounded=0;whiteSpace=wrap;html=1;fontSize=12;fontFamily=宋体;" parent="1" vertex="1">
          <mxGeometry x="360" y="220" width="80" height="40" as="geometry" />
        </mxCell>
        <mxCell id="zBk1Tng8OVJCPWsyoCuW-71" value="" style="html=1;shadow=0;dashed=0;align=center;verticalAlign=middle;shape=mxgraph.arrows2.calloutArrow;dy=9;dx=28;notch=90;arrowHead=10;fontSize=12;fontFamily=宋体;" parent="1" vertex="1">
          <mxGeometry x="120" y="160" width="140" height="40" as="geometry" />
        </mxCell>
        <mxCell id="zBk1Tng8OVJCPWsyoCuW-72" value="合约层" style="text;html=1;align=center;verticalAlign=middle;resizable=0;points=[];autosize=1;strokeColor=none;fillColor=none;fontSize=12;fontStyle=1;fontFamily=宋体;" parent="1" vertex="1">
          <mxGeometry x="130" y="165" width="60" height="30" as="geometry" />
        </mxCell>
        <mxCell id="zBk1Tng8OVJCPWsyoCuW-73" value="脚本" style="rounded=0;whiteSpace=wrap;html=1;fontSize=12;fontFamily=宋体;" parent="1" vertex="1">
          <mxGeometry x="280" y="160" width="80" height="40" as="geometry" />
        </mxCell>
        <mxCell id="zBk1Tng8OVJCPWsyoCuW-74" value="代码" style="rounded=0;whiteSpace=wrap;html=1;fontSize=12;fontFamily=宋体;" parent="1" vertex="1">
          <mxGeometry x="360" y="160" width="80" height="40" as="geometry" />
        </mxCell>
        <mxCell id="zBk1Tng8OVJCPWsyoCuW-75" value="智能合约" style="rounded=0;whiteSpace=wrap;html=1;fontSize=12;fontFamily=宋体;" parent="1" vertex="1">
          <mxGeometry x="440" y="160" width="80" height="40" as="geometry" />
        </mxCell>
        <mxCell id="zBk1Tng8OVJCPWsyoCuW-76" value="算法" style="rounded=0;whiteSpace=wrap;html=1;fontSize=12;fontFamily=宋体;" parent="1" vertex="1">
          <mxGeometry x="520" y="160" width="80" height="40" as="geometry" />
        </mxCell>
        <mxCell id="zBk1Tng8OVJCPWsyoCuW-77" value="" style="html=1;shadow=0;dashed=0;align=center;verticalAlign=middle;shape=mxgraph.arrows2.calloutArrow;dy=9;dx=28;notch=90;arrowHead=10;fontSize=12;fontFamily=宋体;" parent="1" vertex="1">
          <mxGeometry x="120" y="100" width="140" height="40" as="geometry" />
        </mxCell>
        <mxCell id="zBk1Tng8OVJCPWsyoCuW-78" value="应用层" style="text;html=1;align=center;verticalAlign=middle;resizable=0;points=[];autosize=1;strokeColor=none;fillColor=none;fontSize=12;fontStyle=1;fontFamily=宋体;" parent="1" vertex="1">
          <mxGeometry x="130" y="105" width="60" height="30" as="geometry" />
        </mxCell>
        <mxCell id="zBk1Tng8OVJCPWsyoCuW-79" value="智慧能源" style="rounded=0;whiteSpace=wrap;html=1;fontSize=12;fontFamily=宋体;" parent="1" vertex="1">
          <mxGeometry x="280" y="100" width="80" height="40" as="geometry" />
        </mxCell>
        <mxCell id="zBk1Tng8OVJCPWsyoCuW-80" value="区块链金融" style="rounded=0;whiteSpace=wrap;html=1;fontSize=12;fontFamily=宋体;" parent="1" vertex="1">
          <mxGeometry x="360" y="100" width="80" height="40" as="geometry" />
        </mxCell>
        <mxCell id="zBk1Tng8OVJCPWsyoCuW-81" value="智慧交通" style="rounded=0;whiteSpace=wrap;html=1;fontSize=12;fontFamily=宋体;" parent="1" vertex="1">
          <mxGeometry x="440" y="100" width="80" height="40" as="geometry" />
        </mxCell>
        <mxCell id="zBk1Tng8OVJCPWsyoCuW-82" value="溯源系统" style="rounded=0;whiteSpace=wrap;html=1;fontSize=12;fontFamily=宋体;" parent="1" vertex="1">
          <mxGeometry x="520" y="100" width="80" height="40" as="geometry" />
        </mxCell>
      </root>
    </mxGraphModel>
  </diagram>
</mxfile>
